<svg width="25" height="30" viewBox="0 0 25 30" fill="none" xmlns="http://www.w3.org/2000/svg">
<path d="M18.3532 0H6.11773C4.4958 0.00194455 2.94086 0.647689 1.79399 1.79559C0.647111 2.94349 0.00194282 4.49981 0 6.12319V24.4928C0 25.7919 0.515635 27.0379 1.43347 27.9566C2.35131 28.8752 3.59616 29.3913 4.89418 29.3913H18.3532C19.9751 29.3894 21.53 28.7436 22.6769 27.5957C23.8238 26.4478 24.469 24.8915 24.4709 23.2681V6.12319C24.469 4.49981 23.8238 2.94349 22.6769 1.79559C21.53 0.647689 19.9751 0.00194455 18.3532 0V0ZM22.0238 6.12319V19.5942H7.34127V2.44928H18.3532C19.3267 2.44928 20.2603 2.83635 20.9487 3.52534C21.6371 4.21433 22.0238 5.14881 22.0238 6.12319ZM4.89418 2.65991V19.5942C4.0348 19.5935 3.19052 19.8203 2.44709 20.2518V6.12319C2.4472 5.36353 2.68257 4.62259 3.12082 4.00236C3.55906 3.38214 4.17861 2.91313 4.89418 2.65991ZM18.3532 26.942H4.89418C4.24517 26.942 3.62274 26.684 3.16383 26.2247C2.70491 25.7653 2.44709 25.1423 2.44709 24.4928C2.44709 23.8432 2.70491 23.2202 3.16383 22.7609C3.62274 22.3015 4.24517 22.0435 4.89418 22.0435H22.0238V23.2681C22.0238 24.2425 21.6371 25.177 20.9487 25.866C20.2603 26.555 19.3267 26.942 18.3532 26.942Z" fill="white"/>
</svg>
