<svg width="30" height="30" viewBox="0 0 30 30" fill="none" xmlns="http://www.w3.org/2000/svg">
<g clip-path="url(#clip0_35_169)">
<path d="M30 13.9902C29.8192 11.1627 28.7864 8.44815 27.029 6.18122C25.2715 3.91428 22.8662 2.19404 20.1096 1.23257C17.353 0.271102 14.3656 0.110437 11.5157 0.770383C8.66573 1.43033 6.07788 2.88204 4.07114 4.94653C2.0644 7.01103 0.726497 9.59807 0.222374 12.3887C-0.28175 15.1793 0.0699416 18.0516 1.23409 20.6514C2.39824 23.2511 4.32396 25.4647 6.77383 27.0193C9.22371 28.5739 12.0906 29.4015 15.0212 29.4H23.75C25.4071 29.3984 26.9958 28.7614 28.1676 27.6287C29.3393 26.496 29.9983 24.9602 30 23.3584V13.9902ZM27.5 23.3584C27.5 24.3198 27.1049 25.2418 26.4016 25.9216C25.6983 26.6015 24.7445 26.9834 23.75 26.9834H15.0212C13.2574 26.9826 11.5135 26.6225 9.90332 25.9265C8.29314 25.2304 6.85279 24.2142 5.6762 22.9439C4.49392 21.6743 3.60611 20.175 3.07231 18.5465C2.53852 16.9181 2.37107 15.1981 2.5812 13.502C2.91299 10.8267 4.15643 8.33418 6.1155 6.41744C8.07457 4.50071 10.6378 3.26875 13.4012 2.91578C13.9402 2.85048 14.4829 2.81738 15.0262 2.8167C17.9393 2.80902 20.7622 3.79292 23 5.59587C24.3069 6.64584 25.3796 7.94143 26.1531 9.40409C26.9266 10.8667 27.3848 12.466 27.5 14.105V23.3584Z" fill="#7EA0B9"/>
<path d="M10 11.275H15C15.3315 11.275 15.6495 11.1477 15.8839 10.9211C16.1183 10.6945 16.25 10.3872 16.25 10.0667C16.25 9.74623 16.1183 9.43889 15.8839 9.21228C15.6495 8.98567 15.3315 8.85837 15 8.85837H10C9.66848 8.85837 9.35054 8.98567 9.11612 9.21228C8.8817 9.43889 8.75 9.74623 8.75 10.0667C8.75 10.3872 8.8817 10.6945 9.11612 10.9211C9.35054 11.1477 9.66848 11.275 10 11.275Z" fill="#7EA0B9"/>
<path d="M20 13.6917H10C9.66848 13.6917 9.35054 13.819 9.11612 14.0456C8.8817 14.2722 8.75 14.5795 8.75 14.9C8.75 15.2205 8.8817 15.5278 9.11612 15.7544C9.35054 15.981 9.66848 16.1083 10 16.1083H20C20.3315 16.1083 20.6495 15.981 20.8839 15.7544C21.1183 15.5278 21.25 15.2205 21.25 14.9C21.25 14.5795 21.1183 14.2722 20.8839 14.0456C20.6495 13.819 20.3315 13.6917 20 13.6917Z" fill="#7EA0B9"/>
<path d="M20 18.525H10C9.66848 18.525 9.35054 18.6523 9.11612 18.8789C8.8817 19.1055 8.75 19.4129 8.75 19.7334C8.75 20.0538 8.8817 20.3612 9.11612 20.5878C9.35054 20.8144 9.66848 20.9417 10 20.9417H20C20.3315 20.9417 20.6495 20.8144 20.8839 20.5878C21.1183 20.3612 21.25 20.0538 21.25 19.7334C21.25 19.4129 21.1183 19.1055 20.8839 18.8789C20.6495 18.6523 20.3315 18.525 20 18.525Z" fill="#7EA0B9"/>
</g>
<defs>
<clipPath id="clip0_35_169">
<rect width="30" height="29" fill="white" transform="translate(0 0.400024)"/>
</clipPath>
</defs>
</svg>
