<svg width="29" height="29" viewBox="0 0 29 29" fill="none" xmlns="http://www.w3.org/2000/svg">
<path d="M13.05 21.75V13.05H15.95V21.75H13.05Z" fill="#7EA0B9"/>
<path d="M15.95 10.15V7.25H13.05V10.15H15.95Z" fill="#7EA0B9"/>
<path fill-rule="evenodd" clip-rule="evenodd" d="M14.5 29C22.5081 29 29 22.5081 29 14.5C29 6.49187 22.5081 0 14.5 0C6.49187 0 0 6.49187 0 14.5C0 22.5081 6.49187 29 14.5 29ZM14.5 26.1C20.9065 26.1 26.1 20.9065 26.1 14.5C26.1 8.0935 20.9065 2.9 14.5 2.9C8.0935 2.9 2.9 8.0935 2.9 14.5C2.9 20.9065 8.0935 26.1 14.5 26.1Z" fill="#7EA0B9"/>
</svg>
