<svg width="31" height="30" viewBox="0 0 31 30" fill="none" xmlns="http://www.w3.org/2000/svg">
<path d="M24.2156 0H7.08599C5.46406 0.00194455 3.90912 0.647689 2.76225 1.79559C1.61537 2.94349 0.970205 4.49981 0.968262 6.12319L0.968262 23.2681C0.970205 24.8915 1.61537 26.4478 2.76225 27.5957C3.90912 28.7436 5.46406 29.3894 7.08599 29.3913H24.2156C25.8375 29.3894 27.3925 28.7436 28.5394 27.5957C29.6862 26.4478 30.3314 24.8915 30.3333 23.2681V6.12319C30.3314 4.49981 29.6862 2.94349 28.5394 1.79559C27.3925 0.647689 25.8375 0.00194455 24.2156 0V0ZM9.53308 26.942V25.7174C9.53308 24.0934 10.1776 22.536 11.3249 21.3876C12.4722 20.2393 14.0283 19.5942 15.6508 19.5942C17.2733 19.5942 18.8294 20.2393 19.9767 21.3876C21.124 22.536 21.7685 24.0934 21.7685 25.7174V26.942H9.53308ZM27.8863 23.2681C27.8863 24.2425 27.4995 25.177 26.8111 25.866C26.1228 26.555 25.1891 26.942 24.2156 26.942V25.7174C24.2156 23.4438 23.3133 21.2634 21.707 19.6557C20.1008 18.0481 17.9223 17.1449 15.6508 17.1449C13.3793 17.1449 11.2008 18.0481 9.59456 19.6557C7.98835 21.2634 7.08599 23.4438 7.08599 25.7174V26.942C6.11247 26.942 5.17883 26.555 4.49046 25.866C3.80208 25.177 3.41535 24.2425 3.41535 23.2681V6.12319C3.41535 5.14881 3.80208 4.21433 4.49046 3.52534C5.17883 2.83635 6.11247 2.44928 7.08599 2.44928H24.2156C25.1891 2.44928 26.1228 2.83635 26.8111 3.52534C27.4995 4.21433 27.8863 5.14881 27.8863 6.12319V23.2681Z" fill="#7EA0B9"/>
<path d="M15.651 4.89856C14.683 4.89856 13.7368 5.18585 12.932 5.72411C12.1271 6.26237 11.4998 7.02742 11.1294 7.92251C10.759 8.8176 10.662 9.80254 10.8509 10.7528C11.0397 11.703 11.5058 12.5758 12.1903 13.2609C12.8748 13.946 13.7468 14.4125 14.6962 14.6015C15.6456 14.7905 16.6297 14.6935 17.524 14.3228C18.4182 13.952 19.1826 13.3241 19.7204 12.5186C20.2582 11.713 20.5452 10.7659 20.5452 9.7971C20.5452 8.49793 20.0296 7.25196 19.1117 6.33331C18.1939 5.41465 16.949 4.89856 15.651 4.89856ZM15.651 12.2464C15.167 12.2464 14.6939 12.1027 14.2915 11.8336C13.8891 11.5645 13.5754 11.1819 13.3902 10.7344C13.205 10.2869 13.1565 9.79439 13.251 9.31927C13.3454 8.84416 13.5784 8.40774 13.9207 8.06521C14.2629 7.72267 14.6989 7.4894 15.1736 7.39489C15.6483 7.30039 16.1403 7.34889 16.5875 7.53427C17.0346 7.71965 17.4168 8.03358 17.6857 8.43636C17.9546 8.83914 18.0981 9.31268 18.0981 9.7971C18.0981 10.4467 17.8403 11.0697 17.3814 11.529C16.9225 11.9883 16.3 12.2464 15.651 12.2464Z" fill="#7EA0B9"/>
</svg>
