<svg width="29" height="29" viewBox="0 0 29 29" fill="none" xmlns="http://www.w3.org/2000/svg">
<path fill-rule="evenodd" clip-rule="evenodd" d="M16.8029 2.9C15.484 2.9 14.4147 3.96925 14.4147 5.28824C14.4147 5.4537 14.4313 5.6138 14.4625 5.76743C14.5491 6.19387 14.4395 6.63665 14.1642 6.97356C13.8888 7.31046 13.4766 7.50588 13.0415 7.50588H8.95588C8.15507 7.50588 7.50588 8.15507 7.50588 8.95589V13.0415C7.50588 13.4766 7.31046 13.8888 6.97356 14.1642C6.63665 14.4395 6.19387 14.5491 5.76743 14.4625C5.6138 14.4313 5.4537 14.4147 5.28824 14.4147C3.96925 14.4147 2.9 15.484 2.9 16.8029C2.9 18.1219 3.96925 19.1912 5.28824 19.1912C5.45371 19.1912 5.6138 19.1746 5.76743 19.1434C6.19387 19.0568 6.63665 19.1663 6.97355 19.4417C7.31046 19.7171 7.50588 20.1293 7.50588 20.5644V24.65C7.50588 25.4508 8.15507 26.1 8.95589 26.1H24.65C25.4508 26.1 26.1 25.4508 26.1 24.65V22.0476C23.5017 21.7128 21.4941 19.4923 21.4941 16.8029C21.4941 14.1135 23.5017 11.893 26.1 11.5583V8.95588C26.1 8.15507 25.4508 7.50588 24.65 7.50588H20.5644C20.1293 7.50588 19.7171 7.31046 19.4417 6.97355C19.1663 6.63665 19.0568 6.19387 19.1434 5.76743C19.1746 5.6138 19.1912 5.45371 19.1912 5.28824C19.1912 3.96925 18.1219 2.9 16.8029 2.9ZM11.5583 4.60588C11.893 2.00759 14.1135 0 16.8029 0C19.4923 0 21.7128 2.00759 22.0476 4.60588H24.65C27.0524 4.60588 29 6.55344 29 8.95588V13.0415C29 13.4766 28.8046 13.8888 28.4677 14.1642C28.1308 14.4395 27.688 14.5491 27.2616 14.4625C27.1079 14.4313 26.9478 14.4147 26.7824 14.4147C25.4634 14.4147 24.3941 15.484 24.3941 16.8029C24.3941 18.1219 25.4634 19.1912 26.7824 19.1912C26.9478 19.1912 27.1079 19.1746 27.2615 19.1434C27.688 19.0568 28.1308 19.1663 28.4677 19.4417C28.8046 19.7171 29 20.1293 29 20.5644V24.65C29 27.0524 27.0524 29 24.65 29H8.95589C6.55345 29 4.60588 27.0524 4.60588 24.65V22.0476C2.00759 21.7128 0 19.4923 0 16.8029C0 14.1135 2.00759 11.893 4.60588 11.5583V8.95589C4.60588 6.55345 6.55344 4.60588 8.95588 4.60588H11.5583Z" fill="#7EA0B9"/>
</svg>
